Coordinates
version=1
nRows=7
nColumns=42
inDegrees=yes

Units are S.I. units (second, meters, Newtons, ...)
If the header above contains a line with 'inDegrees', this indicates whether rotational values are in degrees (yes) or radians (no).

endheader
time	pelvis_tilt	pelvis_list	pelvis_rotation	pelvis_tx	pelvis_ty	pelvis_tz	hip_flexion_r	hip_adduction_r	hip_rotation_r	knee_angle_r	knee_adduction_r	knee_angle_r_beta	ankle_angle_r	subtalar_angle_r	mtp_angle_r	hip_flexion_l	hip_adduction_l	hip_rotation_l	knee_angle_l	knee_adduction_l	knee_angle_l_beta	ankle_angle_l	subtalar_angle_l	mtp_angle_l	lumbar_extension	lumbar_bending	lumbar_rotation	arm_flex_r	arm_add_r	arm_rot_r	elbow_flex_r	pro_sup_r	wrist_flex_r	wrist_dev_r	arm_flex_l	arm_add_l	arm_rot_l	elbow_flex_l	pro_sup_l	wrist_flex_l	wrist_dev_l
      0.74000000	     -0.74600484	      0.86229496	      1.64503251	     -0.00863990	      0.97688406	     -0.24554147	     24.49748784	     -1.98269233	     -8.72824238	     51.68190622	     -2.41677720	      0.90201943	      2.57864682	    -17.41758272	     -7.70107776	      3.81236249	      4.49152147	     -4.92682082	     16.16100352	     -2.55392384	      0.28206272	     10.93029516	     -3.22405969	     -7.70107776	    -10.49105716	     -3.24082698	     -0.68145414	    -10.57608368	     -9.00116103	      1.85267274	     33.42826083	     90.00000001	      0.00000000	      0.00000000	      1.69884503	    -10.86408101	      4.96597045	     31.43914686	     90.00000001	      0.00000000	      0.00000000
      0.75000000	     -0.59485792	      0.79931028	      1.90063196	      0.00523507	      0.97617879	     -0.24626032	     25.05804663	     -2.05299107	     -8.75488410	     49.08179580	     -2.00959138	      0.85663894	      2.76834160	    -17.17539200	     -7.69275417	      2.48030292	      4.47352312	     -4.66589380	     15.66662628	     -2.58094107	      0.27343421	     11.55266672	     -3.06056110	     -7.69275417	    -10.64754568	     -2.99530919	     -0.88751178	    -11.03758249	     -9.08594964	      1.44275698	     33.34516638	     90.00000001	      0.00000000	      0.00000000	      2.42044830	    -11.08421451	      6.44750116	     32.56545618	     90.00000001	      0.00000000	      0.00000000
      0.76000000	     -0.55621943	      0.78589281	      2.08776021	      0.01916431	      0.97497377	     -0.24672525	     25.67928838	     -2.12600356	     -8.86700237	     46.31785310	     -1.74093146	      0.80839904	      3.04117913	    -16.73400895	     -7.68500752	      1.26453963	      4.43123240	     -4.36006946	     15.18998771	     -2.44377894	      0.26511530	     12.21435960	     -2.87573671	     -7.68500752	    -10.65045527	     -2.83278886	     -1.06349754	    -11.46495542	     -9.15043115	      1.02954157	     33.28341096	     90.00000001	      0.00000000	      0.00000000	      3.08827439	    -11.32819729	      7.75464146	     33.64542907	     90.00000001	      0.00000000	      0.00000000
      0.77000000	     -0.84704983	      1.12845561	      2.13033668	      0.03277840	      0.97286935	     -0.24738593	     26.78734884	     -2.63060244	     -9.13679213	     43.70971616	     -1.65917114	      0.76287846	      3.19418317	    -16.02027618	     -7.68306908	      0.63211810	      4.88306920	     -4.57343401	     15.11118902	     -2.56585259	      0.26374000	     12.68134773	     -2.80685567	     -7.68306908	    -10.31725715	     -3.07188238	     -1.12044268	    -11.93671148	     -9.27508247	      0.95267875	     33.22937658	     90.00000001	      0.00000000	      0.00000000	      3.88726540	    -11.28367730	      7.95755568	     34.43590411	     90.00000001	      0.00000000	      0.00000000
      0.78000000	     -0.92369572	      0.94202312	      2.31975373	      0.04645022	      0.97102182	     -0.24765821	     27.28644353	     -2.48600877	     -9.14936035	     40.45086371	     -1.31190702	      0.70600076	      3.60601071	    -15.10439099	     -7.67889544	     -0.43091943	      4.67949605	     -3.97866496	     14.66400349	     -2.46816578	      0.25593514	     13.64389447	     -2.58941862	     -7.67889544	    -10.24066337	     -2.71506494	     -1.32529020	    -12.14920691	     -9.28460940	      0.41767642	     32.96229361	     90.00000001	      0.00000000	      0.00000000	      4.49957306	    -11.61697482	      9.51218658	     35.74255295	     90.00000001	      0.00000000	      0.00000000
      0.79000000	     -0.52886352	      0.88056614	      2.42507989	      0.06051241	      0.96950259	     -0.24768166	     27.25232058	     -2.38012329	    -10.00211506	     37.11656832	     -1.60138657	      0.64780632	      3.76082575	    -13.96764564	     -7.67153284	     -1.93204853	      4.53812406	     -3.93127919	     14.40031477	     -2.38087208	      0.25133291	     14.22701253	     -2.73904279	     -7.67153284	    -10.68075991	     -2.51076620	     -1.31071485	    -12.41769771	     -9.21793877	     -0.33348800	     32.82966631	     90.00000001	      0.00000000	      0.00000000	      5.39434785	    -12.02803096	     11.51173886	     36.73947630	     90.00000001	      0.00000000	      0.00000000
      0.80000000	     -0.66345803	      1.01539515	      2.41524626	      0.07418808	      0.96700931	     -0.24769221	     27.80847228	     -2.51737695	    -10.50549660	     33.85150662	     -1.64239908	      0.59082025	      4.13961376	    -12.33320014	     -7.66586731	     -2.77991791	      4.68334491	     -3.92102261	     14.26488334	     -2.35706085	      0.24896918	     14.90138869	     -2.79334176	     -7.66586731	    -10.55042383	     -2.55817583	     -1.33164575	    -12.58485989	     -9.17894916	     -0.71261610	     32.55221540	     90.00000001	      0.00000000	      0.00000000	      6.17502685	    -12.23468634	     12.41218467	     37.68181827	     90.00000001	      0.00000000	      0.00000000
